<svg width="46" height="21" viewBox="0 0 46 21" fill="none" xmlns="http://www.w3.org/2000/svg">
<path d="M25.296 8.04005H25.488L25.744 8.37605C26.672 9.59205 27.12 10.872 27.12 12.248C27.12 13.496 26.8 14.824 26.176 16.264H2.4L4.29153e-06 12.648L0.208004 12.248H25.552L23.456 10.44L25.296 8.04005ZM16.192 16.968C17.008 17.224 17.76 17.544 17.856 18.072C17.952 18.552 17.2 19.416 16.752 19.768C16.272 19.336 15.712 18.952 15.056 18.664C15.312 18.04 15.712 17.464 16.192 16.968ZM28.7727 16.248L28.1327 6.23205L30.0047 4.95205H30.1647L30.3567 14.056L28.9327 16.248H28.7727ZM37.0477 11.704L37.3677 12.2V15.72L37.0477 16.248C36.5837 16.248 36.1837 16.088 35.7837 15.848C35.5437 17.56 34.9837 18.952 33.9917 20.104L30.1357 17.752L30.1197 17.336C32.0877 17.016 33.6397 16.168 34.1517 15.08L32.1997 11.384L34.5517 9.17605H34.7117C35.1277 9.96005 35.3997 10.84 35.6077 11.704H37.0477ZM42.2129 5.91205C42.3089 6.39205 41.5569 7.25605 41.1089 7.60805C40.7089 7.24005 40.2449 6.92005 39.7329 6.64805C39.4929 7.03205 39.1249 7.40005 38.8689 7.60805C38.3889 7.17605 37.8289 6.79205 37.1729 6.50405C37.4289 5.88005 37.8289 5.30405 38.3089 4.80805C38.9809 5.01605 39.6049 5.27205 39.8609 5.65605C40.0689 5.35205 40.2929 5.06405 40.5489 4.80805C41.3649 5.06405 42.1169 5.38405 42.2129 5.91205ZM40.0849 7.91205H40.2449C40.9649 8.90405 41.3169 10.808 41.3169 11.704V12.872L40.2929 16.248H37.3169L36.9969 15.768V12.072L37.3169 11.704H39.5889L38.3889 9.59205L40.0849 7.91205ZM45.3912 4.673e-05C45.3272 0.192046 45.2632 0.416046 45.2152 0.624046C45.0552 0.624046 43.6312 0.896047 41.7912 1.31205C41.8552 1.07205 41.9512 0.848046 42.0152 0.672047C43.5512 0.320046 44.9432 0.0640469 45.3912 4.673e-05ZM45.0609 2.88805L45.1089 2.87205L45.1729 4.21605C44.5169 4.36005 43.7329 4.68005 43.1089 5.01605L43.0609 5.00005L42.9489 3.81605L43.3329 3.64005C43.2689 3.57605 43.1569 3.49605 43.1089 3.40005C43.0289 3.14405 42.9809 2.16805 43.7009 1.78405C44.1169 1.73605 44.7089 2.00805 44.7729 2.66405L44.7089 2.77605L44.4529 2.61605C44.0049 2.66405 43.6049 2.93605 43.4449 3.12805C43.9089 3.25605 44.5809 3.11205 45.0609 2.88805ZM43.7649 16.248L43.1249 6.23205L44.9969 4.95205H45.1569L45.3489 14.056L43.9249 16.248H43.7649Z" fill="black"/>
</svg>
